<?xml version="1.0" encoding="UTF-8" standalone="no"?>
<!DOCTYPE svg PUBLIC "-//W3C//DTD SVG 1.1//EN" "http://www.w3.org/Graphics/SVG/1.1/DTD/svg11.dtd">
<svg width="100%" height="100%" viewBox="0 0 446 89" version="1.1" xmlns="http://www.w3.org/2000/svg" xmlns:xlink="http://www.w3.org/1999/xlink" xml:space="preserve" xmlns:serif="http://www.serif.com/" style="fill-rule:evenodd;clip-rule:evenodd;stroke-linejoin:round;stroke-miterlimit:2;">
    <g transform="matrix(1,0,0,1,-852.41,-660.637)">
        <g transform="matrix(0.744068,0,0,0.744068,817.564,456.965)">
            <g transform="matrix(160,0,0,160,43.7072,391.001)">
                <path d="M0.212,-0.278C0.212,-0.289 0.21,-0.297 0.207,-0.303C0.205,-0.308 0.201,-0.313 0.196,-0.317C0.191,-0.321 0.186,-0.324 0.179,-0.326C0.172,-0.328 0.164,-0.33 0.156,-0.33C0.14,-0.33 0.127,-0.326 0.116,-0.318C0.111,-0.314 0.107,-0.309 0.104,-0.304C0.101,-0.297 0.099,-0.289 0.099,-0.28C0.099,-0.272 0.1,-0.266 0.103,-0.262C0.104,-0.259 0.107,-0.256 0.111,-0.253C0.118,-0.248 0.136,-0.242 0.164,-0.236C0.205,-0.226 0.234,-0.214 0.252,-0.201C0.265,-0.19 0.276,-0.178 0.283,-0.163C0.29,-0.147 0.293,-0.13 0.293,-0.11C0.293,-0.094 0.29,-0.079 0.283,-0.064C0.276,-0.05 0.265,-0.037 0.252,-0.025C0.24,-0.014 0.225,-0.006 0.208,-0C0.191,0.006 0.174,0.009 0.157,0.009C0.139,0.009 0.122,0.006 0.105,-0C0.088,-0.006 0.073,-0.014 0.061,-0.025C0.048,-0.037 0.037,-0.05 0.03,-0.064C0.023,-0.079 0.02,-0.096 0.02,-0.114L0.096,-0.114C0.096,-0.105 0.097,-0.098 0.1,-0.092C0.103,-0.086 0.107,-0.081 0.113,-0.076C0.119,-0.071 0.125,-0.067 0.133,-0.064C0.14,-0.062 0.148,-0.06 0.157,-0.06C0.165,-0.06 0.173,-0.062 0.18,-0.064C0.188,-0.067 0.194,-0.071 0.2,-0.076C0.206,-0.081 0.21,-0.086 0.213,-0.092C0.216,-0.098 0.217,-0.104 0.217,-0.111C0.217,-0.121 0.216,-0.13 0.213,-0.136C0.211,-0.14 0.207,-0.144 0.203,-0.148C0.194,-0.155 0.174,-0.162 0.144,-0.169C0.107,-0.178 0.081,-0.188 0.065,-0.199C0.052,-0.208 0.041,-0.219 0.034,-0.232C0.027,-0.246 0.023,-0.262 0.023,-0.28C0.023,-0.299 0.027,-0.316 0.035,-0.332C0.042,-0.347 0.053,-0.359 0.066,-0.37C0.079,-0.38 0.093,-0.387 0.109,-0.392C0.124,-0.397 0.141,-0.399 0.158,-0.399C0.174,-0.399 0.19,-0.396 0.205,-0.391C0.22,-0.386 0.234,-0.379 0.246,-0.37C0.26,-0.358 0.271,-0.345 0.278,-0.33C0.285,-0.315 0.288,-0.298 0.288,-0.278L0.212,-0.278Z" style="fill:rgb(252,175,56);fill-rule:nonzero;"/>
            </g>
            <g transform="matrix(160,0,0,160,168.942,391.001)">
                <path d="M0.44,-0L0.365,-0L0.365,-0.204C0.365,-0.237 0.353,-0.265 0.33,-0.289C0.306,-0.312 0.278,-0.324 0.245,-0.324C0.211,-0.324 0.183,-0.312 0.16,-0.289C0.136,-0.265 0.125,-0.237 0.125,-0.204L0.125,-0L0.049,-0L0.049,-0.204C0.049,-0.258 0.068,-0.304 0.106,-0.342C0.145,-0.381 0.191,-0.4 0.245,-0.4C0.299,-0.4 0.345,-0.381 0.383,-0.342C0.421,-0.304 0.44,-0.258 0.44,-0.204L0.44,-0Z" style="fill:rgb(252,175,56);fill-rule:nonzero;"/>
            </g>
            <g transform="matrix(1.34396,0,0,1.34396,1470.3,-139.516)">
                <rect x="-903.54" y="348.121" width="9.01" height="46.621" style="fill:rgb(252,175,56);fill-rule:nonzero;"/>
            </g>
            <g transform="matrix(1.34396,0,0,1.34396,1470.3,-139.516)">
                <path d="M-981.958,348.121L-972.948,348.121L-972.948,372.361C-972.948,378.794 -975.215,384.297 -979.749,388.87C-984.322,393.404 -989.825,395.672 -996.258,395.672C-1002.69,395.672 -1008.19,393.404 -1012.77,388.87C-1017.3,384.297 -1019.57,378.794 -1019.57,372.361L-1019.57,348.121L-1010.56,348.121L-1010.56,372.361C-1010.56,376.314 -1009.16,379.686 -1006.37,382.476C-1003.58,385.266 -1000.21,386.661 -996.258,386.661C-992.305,386.661 -988.934,385.266 -986.143,382.476C-983.353,379.686 -981.958,376.314 -981.958,372.361L-981.958,348.121Z" style="fill:rgb(252,175,56);fill-rule:nonzero;"/>
            </g>
        </g>
        <g transform="matrix(0.411402,0,0,0.411402,1008.88,584.01)">
            <g transform="matrix(289.379,0,0,289.379,43.7072,391.001)">
                <path d="M0.212,-0.278C0.212,-0.289 0.21,-0.297 0.207,-0.303C0.205,-0.308 0.201,-0.313 0.196,-0.317C0.191,-0.321 0.186,-0.324 0.179,-0.326C0.172,-0.328 0.164,-0.33 0.156,-0.33C0.14,-0.33 0.127,-0.326 0.116,-0.318C0.111,-0.314 0.107,-0.309 0.104,-0.304C0.101,-0.297 0.099,-0.289 0.099,-0.28C0.099,-0.272 0.1,-0.266 0.103,-0.262C0.104,-0.259 0.107,-0.256 0.111,-0.253C0.118,-0.248 0.136,-0.242 0.164,-0.236C0.205,-0.226 0.234,-0.214 0.252,-0.201C0.265,-0.19 0.276,-0.178 0.283,-0.163C0.29,-0.147 0.293,-0.13 0.293,-0.11C0.293,-0.094 0.29,-0.079 0.283,-0.064C0.276,-0.05 0.265,-0.037 0.252,-0.025C0.24,-0.014 0.225,-0.006 0.208,-0C0.191,0.006 0.174,0.009 0.157,0.009C0.139,0.009 0.122,0.006 0.105,-0C0.088,-0.006 0.073,-0.014 0.061,-0.025C0.048,-0.037 0.037,-0.05 0.03,-0.064C0.023,-0.079 0.02,-0.096 0.02,-0.114L0.096,-0.114C0.096,-0.105 0.097,-0.098 0.1,-0.092C0.103,-0.086 0.107,-0.081 0.113,-0.076C0.119,-0.071 0.125,-0.067 0.133,-0.064C0.14,-0.062 0.148,-0.06 0.157,-0.06C0.165,-0.06 0.173,-0.062 0.18,-0.064C0.188,-0.067 0.194,-0.071 0.2,-0.076C0.206,-0.081 0.21,-0.086 0.213,-0.092C0.216,-0.098 0.217,-0.104 0.217,-0.111C0.217,-0.121 0.216,-0.13 0.213,-0.136C0.211,-0.14 0.207,-0.144 0.203,-0.148C0.194,-0.155 0.174,-0.162 0.144,-0.169C0.107,-0.178 0.081,-0.188 0.065,-0.199C0.052,-0.208 0.041,-0.219 0.034,-0.232C0.027,-0.246 0.023,-0.262 0.023,-0.28C0.023,-0.299 0.027,-0.316 0.035,-0.332C0.042,-0.347 0.053,-0.359 0.066,-0.37C0.079,-0.38 0.093,-0.387 0.109,-0.392C0.124,-0.397 0.141,-0.399 0.158,-0.399C0.174,-0.399 0.19,-0.396 0.205,-0.391C0.22,-0.386 0.234,-0.379 0.246,-0.37C0.26,-0.358 0.271,-0.345 0.278,-0.33C0.285,-0.315 0.288,-0.298 0.288,-0.278L0.212,-0.278Z" style="fill:rgb(77,77,77);fill-rule:nonzero;"/>
            </g>
            <g transform="matrix(289.379,0,0,289.379,134.279,391.001)">
                <path d="M0.049,-0.708L0.125,-0.708L0.125,-0.392L0.341,-0.392L0.341,-0.316L0.125,-0.316L0.125,-0.159C0.125,-0.136 0.133,-0.116 0.149,-0.1C0.165,-0.084 0.185,-0.076 0.208,-0.076C0.231,-0.076 0.251,-0.084 0.267,-0.1C0.283,-0.116 0.292,-0.136 0.292,-0.159L0.292,-0.203L0.367,-0.203L0.367,-0.159C0.367,-0.115 0.352,-0.078 0.32,-0.047C0.289,-0.016 0.252,-0 0.208,-0C0.164,-0 0.126,-0.015 0.095,-0.046C0.064,-0.078 0.049,-0.115 0.049,-0.159L0.049,-0.708Z" style="fill:rgb(77,77,77);fill-rule:nonzero;"/>
            </g>
            <g transform="matrix(289.379,0,0,289.379,247.883,391.001)">
                <path d="M0.355,-0.392L0.431,-0.392L0.431,-0.188C0.431,-0.134 0.412,-0.088 0.374,-0.049C0.335,-0.011 0.289,0.008 0.235,0.008C0.181,0.008 0.135,-0.011 0.096,-0.049C0.058,-0.088 0.039,-0.134 0.039,-0.188L0.039,-0.392L0.115,-0.392L0.115,-0.188C0.115,-0.155 0.126,-0.126 0.15,-0.103C0.173,-0.08 0.202,-0.068 0.235,-0.068C0.268,-0.068 0.296,-0.08 0.32,-0.103C0.343,-0.126 0.355,-0.155 0.355,-0.188L0.355,-0.392Z" style="fill:rgb(77,77,77);fill-rule:nonzero;"/>
            </g>
            <g transform="matrix(289.379,0,0,289.379,383.812,391.001)">
                <path d="M0.361,-0.708L0.437,-0.708L0.437,-0.208L0.437,-0.208C0.437,-0.204 0.437,-0.2 0.437,-0.196C0.437,-0.139 0.417,-0.091 0.377,-0.052C0.337,-0.012 0.289,0.008 0.233,0.008C0.177,0.008 0.129,-0.012 0.089,-0.052C0.049,-0.091 0.029,-0.139 0.029,-0.196C0.029,-0.252 0.049,-0.3 0.089,-0.34C0.129,-0.38 0.177,-0.399 0.233,-0.399C0.281,-0.399 0.324,-0.384 0.361,-0.354L0.361,-0.708ZM0.233,-0.324C0.198,-0.324 0.168,-0.311 0.143,-0.286C0.118,-0.261 0.105,-0.231 0.105,-0.196C0.105,-0.16 0.118,-0.13 0.143,-0.105C0.168,-0.08 0.198,-0.068 0.233,-0.068C0.268,-0.068 0.299,-0.08 0.324,-0.105C0.348,-0.13 0.361,-0.16 0.361,-0.196C0.361,-0.231 0.348,-0.261 0.324,-0.286C0.299,-0.311 0.268,-0.324 0.233,-0.324Z" style="fill:rgb(77,77,77);fill-rule:nonzero;"/>
            </g>
            <g transform="matrix(289.379,0,0,289.379,578.662,391.001)">
                <path d="M0.228,0.01C0.172,0.01 0.124,-0.01 0.084,-0.05C0.044,-0.09 0.024,-0.138 0.024,-0.194C0.024,-0.25 0.044,-0.298 0.084,-0.338C0.124,-0.378 0.172,-0.397 0.228,-0.397C0.284,-0.397 0.333,-0.378 0.373,-0.338C0.412,-0.298 0.432,-0.25 0.432,-0.194C0.432,-0.138 0.412,-0.09 0.373,-0.05C0.333,-0.01 0.284,0.01 0.228,0.01ZM0.138,-0.104C0.163,-0.078 0.193,-0.066 0.228,-0.066C0.264,-0.066 0.294,-0.078 0.319,-0.104C0.344,-0.128 0.356,-0.158 0.356,-0.194C0.356,-0.229 0.344,-0.259 0.319,-0.284C0.294,-0.309 0.264,-0.322 0.228,-0.322C0.193,-0.322 0.163,-0.309 0.138,-0.284C0.113,-0.259 0.1,-0.229 0.1,-0.194C0.1,-0.158 0.113,-0.128 0.138,-0.104Z" style="fill:rgb(77,77,77);fill-rule:nonzero;"/>
            </g>
            <g transform="matrix(2.43071,0,0,2.43071,2194.17,-561.14)">
                <rect x="-680.435" y="345.092" width="9.01" height="46.621" style="fill:rgb(77,77,77);fill-rule:nonzero;"/>
            </g>
        </g>
        <g transform="matrix(1,0,0,1,1911.57,353.156)">
            <circle cx="-1005.01" cy="339.89" r="4.505" style="fill:rgb(77,77,77);"/>
        </g>
        <g transform="matrix(1,0,0,1,1911.57,353.156)">
            <circle cx="-987.568" cy="339.89" r="4.505" style="fill:rgb(77,77,77);"/>
        </g>
    </g>
</svg>
