<?xml version="1.0" encoding="UTF-8" standalone="no"?>
<!DOCTYPE svg PUBLIC "-//W3C//DTD SVG 1.1//EN" "http://www.w3.org/Graphics/SVG/1.1/DTD/svg11.dtd">
<svg width="100%" height="100%" viewBox="0 0 240 240" version="1.1" xmlns="http://www.w3.org/2000/svg" xmlns:xlink="http://www.w3.org/1999/xlink" xml:space="preserve" xmlns:serif="http://www.serif.com/" style="fill-rule:evenodd;clip-rule:evenodd;stroke-linejoin:round;stroke-miterlimit:2;">
    <g transform="matrix(1,0,0,1,-942.254,-409.34)">
        <g transform="matrix(1.20161,0,0,1.20021,822.965,81.9882)">
            <circle cx="199.14" cy="375.153" r="50.893" style="fill:rgb(255,243,222);"/>
        </g>
        <path d="M1062.25,409.34L1087.05,436.788L1122.25,425.417L1130.01,461.587L1166.18,469.34L1154.81,504.541L1182.25,529.34L1154.81,554.139L1166.18,589.34L1130.01,597.092L1122.25,633.263L1087.05,621.891L1062.25,649.34L1037.45,621.891L1002.25,633.263L994.501,597.092L958.331,589.34L969.702,554.139L942.254,529.34L969.702,504.541L958.331,469.34L994.501,461.587L1002.25,425.417L1037.45,436.788L1062.25,409.34ZM1140.32,488.046L1139.96,488.046L1062.25,539.818L984.549,488.046L984.192,488.046C977.653,500.371 973.948,514.426 973.948,529.34C973.948,578.077 1013.52,617.646 1062.25,617.646C1110.99,617.646 1150.56,578.077 1150.56,529.34C1150.56,514.426 1146.86,500.371 1140.32,488.046Z" style="fill:rgb(252,175,56);"/>
        <g transform="matrix(1,0,0,1,742.411,217.274)">
            <circle cx="319.843" cy="322.53" r="6.59" style="fill:rgb(77,77,77);"/>
        </g>
    </g>
</svg>
